<mxfile host="app.diagrams.net" modified="2025-03-09T12:04:34.005Z" agent="Mozilla/5.0 (Windows NT 10.0; Win64; x64) AppleWebKit/537.36 (KHTML, like Gecko) Chrome/134.0.0.0 Safari/537.36" version="24.0.2" etag="R5I59TmYUgo19UJW1-1G" type="github">
  <diagram name="Страница — 1" id="dQ4DGpYC2FeNqxJqCLZt">
    <mxGraphModel>
      <root>
        <mxCell id="0" />
        <mxCell id="1" parent="0" />
      </root>
    </mxGraphModel>
  </diagram>
</mxfile>
